<?xml version="1.0" encoding="UTF-8"?>
<svg id="_레이어_2" data-name="레이어 2" xmlns="http://www.w3.org/2000/svg" viewBox="0 0 100.04 27.52">
  <defs>
    <style>
      .cls-1 {
        fill: none;
        stroke: #fff;
        stroke-miterlimit: 10;
        stroke-width: .5px;
      }
    </style>
  </defs>
  <g id="_레이어_1-2" data-name="레이어 1">
    <g>
      <path class="cls-1" d="M12.91,14.46c.04.89-.06,1.66-.32,2.27-.26.61-.65,1.08-1.17,1.41-.52.32-1.15.51-1.88.57-.73.06-1.52,0-2.37-.17-.87-.17-1.68-.41-2.44-.7-.77-.29-1.46-.62-2.09-.98-.63-.36-1.17-.76-1.6-1.2-.43-.44-.72-.92-.77-1.47-.06-.53.13-1,.48-1.43.35-.43.85-.81,1.45-1.16.6-.35,1.28-.66,2.03-.93.76-.26,1.56-.47,2.43-.6.85-.13,1.66-.16,2.43-.08.76.08,1.43.29,1.99.64.56.36,1,.85,1.32,1.49.32.64.48,1.43.52,2.34ZM3.81,14.28c.04.49.14.95.3,1.37.16.43.38.8.65,1.14s.58.62.93.85c.34.23.73.39,1.16.47.43.08.74.04.95-.12.2-.16.33-.41.39-.75.06-.34.07-.76.04-1.25-.03-.49-.07-1.03-.1-1.61-.03-.58-.05-1.13-.08-1.63-.03-.5-.08-.93-.17-1.29-.1-.36-.25-.63-.48-.8-.23-.17-.57-.23-1.02-.17-.45.06-.84.2-1.16.43-.32.22-.61.5-.83.84-.22.34-.39.72-.49,1.15-.1.43-.13.89-.1,1.38Z"/>
      <path class="cls-1" d="M25.19,10.05c.05-.56-.23-.82-.86-.79-.46.02-.97.2-1.54.51-.57.32-1.16.75-1.75,1.28-.34,3.68-.2,5.6.59,9.2-2.25-.2-3.34-.31-5.4-.55-1.13-3.8-1.25-5.87-.52-9.73-.37-.31-.55-.46-.89-.75,2.47-.23,3.78-.34,6.53-.53-.11.64-.16.97-.23,1.62.3-.24.62-.49.97-.74.35-.25.74-.48,1.19-.68.44-.2.94-.38,1.5-.52.56-.14,1.19-.24,1.89-.28.84-.05,1.56.04,2.15.27.59.23,1.08.54,1.45.92.37.38.64.82.81,1.31.17.49.25.95.24,1.39-.09,3.06-.03,4.62.26,7.61.03.33.09.56.17.68.08.12.23.19.44.2.3.01.6-.17.92-.55.15.1.22.15.37.25-.67.8-1.84,1.14-3.48,1.04-.56-.03-1.11-.11-1.65-.23-.54-.12-1.02-.3-1.46-.54-.44-.24-.81-.54-1.1-.9-.29-.36-.47-.79-.53-1.31-.38-3.23-.39-4.93-.08-8.18Z"/>
      <path class="cls-1" d="M43.07,22.16c.06,1.81-.45,3.06-1.51,3.74-1.06.69-2.73.96-4.99.79-.34-.03-.71-.08-1.12-.16-.41-.08-.83-.19-1.25-.34-.42-.15-.82-.33-1.21-.54-.39-.21-.72-.46-.99-.74-.15-.74-.21-1.12-.34-1.87.12,0,.18.01.3.02.17.5.4.93.68,1.29.28.36.59.66.92.89.33.23.66.41,1,.53.34.12.66.19.95.21.97.07,1.39-.39,1.26-1.38-.77-6.02-.91-9.35-.56-15.58-.53-.41-.79-.61-1.3-1.02,3.13-.1,4.75-.14,8.05-.19-.19,5.68-.17,8.72.1,14.33ZM36.73,3.35c.09-.74.46-1.37,1.09-1.89.63-.52,1.36-.81,2.22-.85.88-.05,1.59.16,2.14.63.55.47.81,1.09.76,1.85-.05.76-.39,1.4-1.03,1.92s-1.43.78-2.36.81c-.9.03-1.62-.19-2.16-.66-.54-.46-.76-1.07-.67-1.81Z"/>
      <path class="cls-1" d="M62.97,19.73c-1.04.73-2.2,1.25-3.47,1.54-1.28.29-2.57.42-3.87.4-1.25-.02-2.42-.18-3.5-.47-1.08-.29-2.03-.73-2.84-1.3-.8-.57-1.44-1.28-1.9-2.14-.46-.85-.69-1.83-.7-2.96,0-1.06.22-2.03.67-2.91.45-.88,1.07-1.63,1.87-2.26.8-.63,1.75-1.12,2.84-1.45,1.09-.34,2.29-.5,3.58-.49,1.26.01,2.43.2,3.5.56,1.07.36,1.99.86,2.77,1.49.78.64,1.38,1.4,1.82,2.28.43.89.65,1.87.63,2.96-4.15.03-6.31.03-10.73.04,0,.55.01,1.18.05,1.88.03.7.12,1.36.27,1.96.14.6.36,1.11.64,1.52.28.41.67.61,1.18.6.53,0,1.14-.05,1.84-.12.7-.07,1.39-.23,2.07-.47.68-.24,1.29-.58,1.84-1.02.55-.44.94-1.03,1.17-1.77.16,0,.24,0,.4,0-.04.86-.06,1.28-.11,2.13ZM57.72,14.31c0-.65-.02-1.34-.06-2.05-.05-.71-.14-1.36-.28-1.93-.14-.57-.34-1.05-.6-1.43-.26-.38-.6-.57-1-.57-.51,0-.9.18-1.17.55-.28.37-.47.85-.6,1.44-.12.59-.2,1.23-.24,1.94-.04.71-.08,1.4-.13,2.05,1.65,0,2.47,0,4.08,0Z"/>
      <path class="cls-1" d="M84.78,14.49c-.03.94-.33,1.75-.84,2.46-.51.71-1.2,1.33-2.04,1.85-.84.52-1.8.96-2.88,1.29-1.08.34-2.23.56-3.46.66-1.25.1-2.42.07-3.51-.1-1.08-.17-2.02-.5-2.82-.98-.8-.49-1.42-1.14-1.86-1.98-.44-.83-.65-1.85-.64-3.04.02-1.13.26-2.13.74-2.98.48-.84,1.14-1.53,1.97-2.05.83-.52,1.79-.89,2.88-1.1,1.09-.21,2.26-.27,3.51-.19,1.23.08,2.37.27,3.45.57,1.08.3,2.03.71,2.85,1.23.82.52,1.48,1.13,1.96,1.85.48.72.72,1.55.69,2.5ZM73.09,14.62c-.02.81-.02,1.56,0,2.26.02.69.1,1.29.25,1.8.15.51.39.9.73,1.17.34.27.81.38,1.43.34s1.15-.23,1.61-.54.84-.72,1.16-1.23c.32-.5.56-1.08.72-1.73.16-.65.25-1.36.28-2.11.02-.76-.04-1.47-.16-2.12-.12-.66-.34-1.24-.62-1.75-.28-.51-.65-.92-1.09-1.23-.44-.31-.99-.49-1.63-.52-.65-.04-1.15.09-1.5.37-.35.28-.61.68-.77,1.21-.16.52-.26,1.14-.3,1.84-.04.7-.07,1.46-.09,2.27Z"/>
      <path class="cls-1" d="M94.65,11.33c-.11-.36-.39-.57-.83-.62-.32-.04-.63.02-.96.18-.33.17-.66.43-1.01.79.53,2.81.32,4.3-.93,7.02-1.74.29-2.67.43-4.63.68,1.23-3.6,1.37-5.57.57-9.24-.49-.36-.73-.54-1.24-.9,2.45.23,3.61.36,5.74.63.17.49.25.74.37,1.23.17-.16.35-.31.53-.46.19-.15.41-.26.66-.35.25-.09.55-.14.89-.16.34-.02.73.01,1.18.09.53.09,1.02.24,1.45.45.44.21.82.43,1.14.68.32.24.58.5.77.76.19.26.3.5.35.73.29,1.55.11,2.36-.83,3.86-.1.17-.16.27-.17.32,0,.05.05.06.15.04.15-.04.39-.17.7-.39.04.03.06.04.09.07-.65.47-1.43.84-2.35,1.07-.32.08-.61.13-.89.15-.28.02-.51,0-.69-.08-.18-.08-.3-.21-.35-.41-.05-.19-.01-.46.11-.8.77-2.1.8-3.23.16-5.34Z"/>
    </g>
  </g>
</svg>