<svg width="110" height="76" viewBox="0 0 110 76" fill="none" xmlns="http://www.w3.org/2000/svg">
<path opacity="0.88" d="M32.1418 43.7097C27.1059 43.5909 22.9293 43.5434 20.1105 43.8284C20.248 46.5716 19.5949 48.1747 17.773 48.0322C16.4668 47.9253 15.5387 46.8566 15.109 43.9828C14.5934 40.4441 14.0605 37.5941 13.1324 35.9316C12.9262 40.8241 13.1496 43.3416 14.1293 48.0084C15.934 56.1784 17.7559 60.0378 22.4824 66.5928C24.3043 69.1459 23.4449 69.0272 21.8637 68.2197C20.6949 67.6259 20.3855 67.4122 18.7871 65.7378C12.3246 58.8266 10.0387 54.4803 8.56055 45.1584C7.56367 49.3622 6.63555 52.5209 6.24023 55.0741C6.0168 54.8841 5.89648 54.7891 5.67305 54.5991C4.38398 49.9084 3.76523 40.4441 8.38867 28.5453C6.44648 28.8184 4.79648 29.1391 2.37305 29.7328C2.47617 28.8897 2.52773 28.4741 2.69961 27.6666C5.3293 27.6072 7.16836 27.5122 9.43711 27.2391C10.6918 22.8809 11.6371 20.7909 14.0262 16.9316C12.0152 17.7866 9.93555 18.6297 7.92461 19.4372C8.0793 19.1641 8.14805 19.0334 8.31992 18.7722C13.2699 15.8628 17.0684 13.1791 22.4824 8.80906C23.0496 8.34594 23.9777 7.55031 24.8199 6.68344C24.9918 6.58844 25.0949 6.55281 25.2668 6.45781C25.5418 8.79719 26.3496 9.85406 25.8512 10.8872C25.473 11.6709 24.3387 11.9322 23.1527 12.3359C22.1215 12.6922 20.7809 13.6541 19.5262 14.3072C20.1449 14.7466 20.1277 15.1622 19.9387 15.5541C19.6637 16.1478 19.3199 16.5159 17.6355 17.4066C15.9855 20.9334 15.3324 22.8097 14.4043 26.6809C14.6793 26.6572 14.8168 26.6334 15.109 26.6097C18.2199 21.7172 18.8902 20.9809 19.234 20.9216C19.5777 20.8741 19.8355 21.1947 20.5918 22.9641C20.6605 23.1541 20.6949 23.2491 20.7637 23.4391C23.4449 18.6891 25.4043 14.8416 28.1543 9.68781C28.6012 8.88031 28.9621 8.28656 29.2371 7.70469C29.3918 7.38406 29.5121 7.07531 29.5809 6.79031C29.8043 6.62406 29.9074 6.54094 30.1137 6.37469C31.8152 6.77844 33.0355 7.17031 33.6715 7.47906C37.298 5.97094 40.8215 4.39156 43.2105 2.71719C44.1902 2.06406 45.084 1.31594 45.4621 0.876563C45.6684 0.829063 45.7543 0.805312 45.9605 0.757812C49.398 3.80969 50.773 5.13969 50.7043 6.07781C50.6527 6.80219 50.2402 7.03969 49.3809 7.07531C48.9168 7.09906 48.384 7.05156 47.6793 7.01594C44.0184 7.65719 38.2777 8.47656 32.9152 9.40281C29.3402 14.8297 25.4043 20.1141 21.0559 24.2703C21.434 25.3272 21.5371 25.7072 21.434 26.2297C21.2621 27.1441 20.9184 27.3934 20.0762 27.4647C17.6355 27.6428 16.4324 27.7497 14.0949 27.9634C13.5793 30.3978 13.4074 31.6447 13.2012 34.1741C15.8824 34.8391 18.7355 37.0359 19.784 41.5009C22.8262 41.8928 26.9684 42.0709 32.0215 42.1541C34.6684 42.2016 36.009 42.2134 38.7246 42.2491C38.6559 39.6484 38.6559 38.3184 38.6902 35.6941C36.6277 35.7059 35.6137 35.7178 33.5855 35.7297C29.7527 35.7653 25.8512 35.9791 22.5855 36.4897C22.4137 35.3853 22.3277 34.8272 22.1902 33.7466C25.6105 34.1384 29.6152 34.2453 33.6027 34.1859C35.3387 34.1622 36.2152 34.1503 37.9855 34.1384C40.3059 30.5641 40.7699 29.8753 41.3027 29.8753C42.0074 29.8634 42.5918 30.3503 44.5684 32.3334C46.5105 34.2928 47.1293 35.2191 47.1293 36.1097C47.1293 37.0834 46.6309 37.5347 45.359 38.4253C45.359 39.9928 45.359 40.7766 45.3934 42.3203C45.5652 42.3203 45.6512 42.3203 45.823 42.3203C47.8855 38.1166 48.3496 37.0834 48.7793 37.0834C49.3293 37.0834 50.0168 37.7128 51.3574 39.4109C52.973 41.4534 53.4543 42.3441 53.4543 43.0566C53.4543 43.6741 53.2137 43.9353 52.5434 43.9353C49.6902 43.9353 48.2809 43.9234 45.4965 43.8997C45.7199 46.3459 45.823 47.5453 46.0809 49.9322C46.2527 54.3378 44.998 55.3353 41.7152 55.1928C39.7902 55.1097 39.4637 54.7059 39.2574 52.2359C39.2574 52.1647 39.2574 52.1409 39.2574 52.0697C37.0574 51.9866 35.9746 51.9272 33.8434 51.8084C29.8902 51.5947 26.1605 51.4878 23.1527 51.6659C22.7574 50.6209 22.5684 50.0866 22.2074 49.0297C25.6277 49.7303 29.5121 50.1578 33.6887 50.3597C35.8543 50.4666 36.9371 50.5141 39.1543 50.5853C38.9652 47.9253 38.8793 46.5716 38.7934 43.8166C36.0777 43.7691 34.7543 43.7453 32.1074 43.6859L32.1418 43.7097ZM22.7059 55.4066C24.648 58.3872 25.9715 61.1184 27.0199 63.7547C28.9449 68.5641 28.584 70.0841 27.0199 69.5378C25.7309 69.0866 24.1152 67.7209 22.8262 65.6666C21.8121 64.0397 21.6918 63.0422 22.448 62.3416C23.4449 61.4034 23.4621 59.7528 22.2762 55.5491C22.448 55.4897 22.534 55.4541 22.723 55.3947L22.7059 55.4066ZM24.7512 20.5059C27.8621 20.5772 30.4402 20.4822 34.4621 20.1972C33.8777 19.7697 33.5684 18.7959 33.7918 17.2759C34.3418 13.6422 34.3934 11.6591 33.7059 10.0441C33.8949 9.83031 33.998 9.72344 34.1871 9.49781C38.5184 9.93719 39.9793 12.3122 39.4121 16.3616C39.1715 18.0716 38.2605 19.3184 37.1434 20.0191C38.2434 19.9478 38.7934 19.9122 39.9105 19.8647C42.1793 16.7178 42.6434 15.8509 43.0387 15.8272C43.5371 15.8034 44.0184 16.1597 45.084 17.3828C46.5621 19.1522 46.9574 19.7341 46.923 20.3872C46.8887 20.8741 46.6652 21.0522 46.0293 21.0641C43.2621 21.1353 41.9043 21.1947 39.2059 21.3253C38.9996 22.2159 38.5012 22.7266 37.573 23.0947C37.4012 24.7928 37.3324 25.6478 37.2121 27.3816C39.3949 27.3103 40.5121 27.2747 42.7465 27.2272C44.9637 23.8784 45.7199 22.7147 46.2355 22.7028C46.6996 22.7028 47.1809 23.0828 48.9684 24.9947C50.2402 26.3366 50.773 27.1084 50.773 27.7972C50.773 28.4859 50.4637 28.6641 49.673 28.6641C42.5574 28.7234 39.0684 28.8066 32.3652 29.0441C27.7074 29.2103 23.7027 29.5784 20.6949 30.1959C20.6262 29.1509 20.609 28.6284 20.5918 27.6072C23.4277 27.7734 26.8824 27.7378 30.8527 27.6309C31.0934 25.2559 31.2309 24.0803 31.5918 21.7884C29.0824 22.0497 27.0371 22.3941 24.648 22.9878C24.6652 21.9784 24.6996 21.4797 24.7512 20.4941V20.5059ZM27.3637 61.0828C27.1059 60.2872 26.9855 59.8834 26.7449 59.0759C26.0574 56.6891 25.6449 55.2403 25.1121 54.2309C25.2496 54.0409 25.3184 53.9459 25.473 53.7441C32.1418 55.4303 33.0355 55.9291 33.2246 56.9384C33.3793 57.7934 32.8293 58.2684 31.798 58.6841C32.348 61.2491 32.6574 62.4959 33.3621 64.9066C33.6944 66.0386 34.6397 66.7195 36.198 66.9491C40.409 67.5547 41.234 67.4716 42.1277 65.2747C42.8324 63.5766 43.2105 62.4603 43.5715 60.1328C43.7949 60.2397 43.9152 60.2872 44.1387 60.3941C44.2418 62.5909 44.2246 63.3391 44.3793 64.5503C44.4996 65.5359 44.8777 66.6641 45.4965 67.3647C46.098 68.0416 46.4246 68.8847 46.5449 69.8109C46.7512 71.4616 46.2012 72.6847 44.9637 73.3853C43.7949 74.0503 42.1965 74.2759 38.5012 73.5278C32.3996 72.2809 31.3855 71.5091 29.1855 66.2722C28.3777 64.2653 27.9996 63.2203 27.3465 61.0709L27.3637 61.0828ZM31.4887 52.8059C37.4184 52.9722 40.3746 56.1784 40.8559 59.9903C41.234 62.9591 40.0996 64.0872 38.673 63.9447C37.298 63.8141 36.3012 62.4128 35.6309 60.2634C34.7027 57.2709 33.4652 54.9672 31.4715 53.5066C31.4715 53.2216 31.4715 53.0791 31.4715 52.8059H31.4887ZM42.9871 8.69031C49.2262 8.57156 52.3543 12.3953 52.2684 15.8272C52.1996 18.6178 51.409 20.5297 48.7965 20.5891C47.2324 20.6247 46.3902 19.2353 46.2527 17.1691C46.0121 13.6778 44.9121 11.1128 42.6605 9.14156C42.798 8.95156 42.8496 8.86844 42.9871 8.67844V8.69031ZM43.709 56.9028C50.5668 59.1116 53.2824 63.7072 53.3855 68.5759C53.4371 71.3072 52.5262 73.3141 50.4465 73.2191C49.2605 73.1597 48.2465 72.1622 47.8855 69.5616C47.2496 65.0016 46.4762 60.6316 43.4168 57.4609C43.5371 57.2472 43.5887 57.1284 43.709 56.9147V56.9028Z" stroke="white" stroke-miterlimit="10"/>
<path opacity="0.88" d="M80.6426 34.6284C76.827 34.5691 73.9738 34.7947 71.1379 35.2103C70.9316 34.2009 70.8285 33.6903 70.6051 32.6928C66.652 36.6116 62.0973 39.7109 57.2848 41.7653C57.1301 41.4447 57.0613 41.2903 56.9238 40.9697C67.2879 32.3009 74.1801 18.1697 73.3895 6.94781C73.3035 4.52531 73.0801 3.75344 72.5988 2.60156C72.6848 2.48281 72.7363 2.42344 72.8223 2.30469C80.1785 5.99781 81.502 7.29219 82.0348 8.30156C82.327 8.87156 82.3957 9.21594 81.5879 9.26344C89.0816 19.2147 98.3801 25.8528 108.538 29.7478C108.641 30.0447 108.675 30.1991 108.761 30.4959C107.129 31.5291 106.475 33.6072 105.496 37.0984C105.135 38.3572 104.911 38.8559 104.568 38.8678C104.224 38.8678 103.605 38.7372 102.814 38.1553C101.233 36.9203 99.6176 35.5666 97.9848 33.9516C98.0535 34.7709 97.7613 34.9847 96.8848 34.9609C93.877 34.8778 92.3473 34.8422 89.1848 34.7828C89.116 35.6616 88.7551 36.1366 87.6551 36.7778C87.7582 42.8222 87.466 45.8622 86.4004 51.5028C88.8926 51.2891 90.1129 51.1703 92.502 50.9091C96.541 45.0191 96.9363 44.1047 97.4004 44.0809C98.0191 44.0453 98.5348 44.4491 99.8238 46.4678C101.405 48.9378 101.354 49.4366 101.147 50.0303C100.872 50.8259 100.511 51.0634 99.7207 51.1822C94.5645 51.9659 91.8316 52.2984 86.1254 52.8566C84.7332 59.4709 83.6332 62.5941 80.9004 68.1753C84.5613 67.2372 86.3316 66.6791 89.666 65.4322C95.0629 60.2784 95.8535 59.3878 96.2316 59.2691C96.7301 59.1266 96.9879 59.3997 97.0051 60.5991C97.0223 62.0359 96.5926 62.3091 96.0941 62.7603C95.4582 63.3541 95.0801 63.6153 94.4957 63.9122C85.4035 68.5316 79.7832 70.2772 67.7004 71.8209C64.3832 72.2484 61.0832 72.6166 58.1785 73.1272C58.0582 72.1891 57.9895 71.7022 57.852 70.7284C61.0145 71.0847 64.4348 70.9897 67.9582 70.5741C71.0176 70.2059 72.5301 69.9684 75.452 69.3984C77.566 63.5559 78.4254 60.3022 79.5082 53.4266C78.1848 53.5216 77.5145 53.5691 76.1738 53.6522C72.2035 53.9016 68.0441 54.2459 64.5723 54.8397C64.4348 53.7234 64.3488 53.1653 64.1941 52.0372C67.9066 52.4528 72.1863 52.4528 76.3629 52.2153C77.7207 52.1322 78.391 52.0966 79.7316 52.0016C80.677 45.3516 80.9004 41.6703 80.6598 34.6166L80.6426 34.6284ZM80.7629 9.29906C81.7426 17.8609 77.1879 26.1616 71.0176 32.3484C74.3863 32.8353 77.6691 33.0491 81.9488 33.1559C85.1113 33.2272 86.6582 33.2747 89.6832 33.3697C92.0035 27.9784 91.952 27.5272 92.4676 27.5628C89.9066 24.2022 87.5004 20.3903 85.2145 16.5428C83.7535 14.1084 82.3957 11.6859 80.952 9.28719C80.866 9.28719 80.8316 9.28719 80.7629 9.29906Z" stroke="white" stroke-miterlimit="10"/>
</svg>
